<?xml version="1.0" encoding="utf-8"?>
<!-- Generator: Adobe Illustrator 16.0.4, SVG Export Plug-In . SVG Version: 6.00 Build 0)  -->
<!DOCTYPE svg PUBLIC "-//W3C//DTD SVG 1.1//EN" "http://www.w3.org/Graphics/SVG/1.1/DTD/svg11.dtd">
<svg version="1.1" id="レイヤー_1" xmlns="http://www.w3.org/2000/svg" xmlns:xlink="http://www.w3.org/1999/xlink" x="0px"
	 y="0px" width="300px" height="300px" viewBox="0 0 300 300" enable-background="new 0 0 300 300" xml:space="preserve">
<g>
	<path fill="#FFFFFF" d="M235.075,190.31c0.058-3.815-1.921-8.128-2.188-11.745c-0.049-0.657,0.516-0.969,0.577-1.61
		c0.138-1.345,0.073-2.201-0.046-3.554c-0.959-10.868-7.676-20.067-14.261-26.528c-7.215-7.077-16.215-12.286-24.531-16.247
		c0.475-3.432-8.525-5.604-8.623-7.959c-0.009-0.312,2.433-2.455,3.646-3.977c3.483-4.354,6.207-9.753,6.633-16.246
		c0.826-12.622-5.973-19.545-12.602-26.855c2.453-9.345,4.296-22.788,1.987-35.479c-1.02-5.616-2.61-10.295-4.642-14.923
		c-0.781-1.784-1.721-3.856-3.109-6.017c-1.996-3.094-4.43-5.859-5.164-5.826c-0.898,0.045-8.115,4.714-12.811,12.215
		c-3.761,6.011-5.485,14.209-6.916,19.756c-2.762-9.133-7.104-18.438-12.114-25.103c-1.644-2.19-2.887-3.72-5.97-5.971
		c-14.77,9.187-19.236,33.334-16.576,56.036c0.25,2.131,0.994,6.633,0.994,6.633s-1.623,2.354-2.982,4.644
		c-2.928,4.915-5.847,10.124-6.302,16.577c-0.847,12.051,4.823,18.141,9.615,24.535c-2.038,0.502-3.438,1.645-5.638,1.989
		c-1.096,0.454-1.042,2.056-2.321,2.321c-16.751,8.018-37.545,19.586-40.449,41.116c-0.322,2.38-0.357,4.625,0.332,6.298
		c-2.257,6.072-4.02,13.878-1.327,19.897c2.869,6.411,10.111,7.99,17.576,9.61c-1.61,12.352,0.076,24.152,3.646,33.162
		c0.961,2.429,2.611,4.737,2.982,6.96c0.273,1.646-0.114,3.515,0,4.978c0.699,9.124,5.064,15.364,9.612,20.557
		c-2.522,6.354,0.579,13.212,5.64,15.248c4.236,1.701,11.974,0.666,19.895,0.666c9.9,0,17.567,1.123,21.884-1.992
		c1.009-0.722,2.016-2.683,2.65-2.652c-0.015,0,1.966,2.045,2.321,2.32c4.539,3.483,11.861,2.32,22.217,2.32
		c7.08,0,13.749,0.607,17.574,0c6.478-1.037,10.684-7.85,8.288-15.25c4.952-5.545,8.45-12.105,7.626-20.891
		c-0.214-2.307-1.656-6.963-1.656-6.963s1.518-4.641,2.17-6.982c2.859-10.299,2.456-18.951,2.42-28.494
		C226.5,206.335,234.916,200.971,235.075,190.31z"/>
	<g>
		<path fill="#FFF0CA" stroke="#FFF0CF" stroke-width="0.7812" d="M190.479,89.866c0,0-0.043,0.063,0.272,0.625
			c5.399,9.667,1.155,20.947-4.415,27.532c-7.076,8.369-21.138,13.924-33.823,13.924c-9.35,0-19.806-3.851-26.854-8.949
			c-9.643-6.975-15.502-19.822-10.305-32.421l0.844-1.548c2.885-5.16,4.643-7.495,6.809-10.794
			c-3.771-22.122-1.982-49.146,11.605-59.68c5.069,4.38,8.738,10.797,11.605,17.573c3.506,8.283,5.72,17.801,6.137,28.562
			c1.014-0.065,1.932,0.134,1.932,0.134s0.156-4.118,0.217-4.824c1.588-18.024,5.788-35.336,17.83-42.603
			c11.824,11.314,14.082,40.27,7.71,59.277c1.342,1.646,3.308,1.118,9.443,11.598L190.479,89.866z"/>
		<path fill="#FFF0CA" stroke="#FFF0CF" stroke-width="0.7812" d="M72.607,189.643c-0.844-5.777,1.135-11.172,2.985-15.912
			c-0.013-0.569,0.249-0.855,0.663-0.992c8.555,0.615,15.037,3.309,20.226,7.299c-2.769,6.178-4.884,13.017-6.634,20.221
			C81.314,199.576,73.77,197.579,72.607,189.643z"/>
		<path fill="#FFF0CA" stroke="#FFF0CF" stroke-width="0.7812" d="M213.521,203.234c-1.344-7.492-2.836-14.836-5.638-20.883
			c4.237-3.945,12.171-5.952,20.226-4.976c1.305,0.769,1.514,2.976,1.991,4.64c1.239,4.314,2.31,11.895-0.661,15.921
			C226.307,202.18,220.152,202.678,213.521,203.234z"/>
		<path fill="#004097" stroke="#00418F" stroke-width="0.7812" d="M125.706,270.202c-11.169-1.034-18.19-2.874-18.19-2.874
			s-5.872-3.568-7.828-10.476c-1.957-6.905-1.498-13.47-1.498-13.47s21.644,4.023,36.729,4.606c15.08,0.575,15.08,0.575,15.08,0.575
			s-0.806,5.297,0.23,13.122c0.678,5.124,2.648,10.02,2.648,10.02S136.873,271.237,125.706,270.202z"/>
		<path fill="#004097" stroke="#00418F" stroke-width="0.7812" d="M208.828,254.318c-0.69,8.983-7.141,13.472-7.141,13.472
			s-11.746,2.185-25.674,2.998c-13.932,0.801-21.298,0.918-21.298,0.918s-1.97-4.896-2.648-10.02
			c-1.034-7.825-0.229-13.122-0.229-13.122s20.26-0.115,34.652-1.955c14.392-1.85,20.608-3.457,20.608-3.457
			S209.212,249.274,208.828,254.318z"/>
		<path fill="#C8C9CA" d="M146.197,143.448c0.809-1.956,1.15-2.878,2.072-2.992c0.923-0.117,3.875-0.147,5.299-0.117
			c1.508,0.034,2.051,1.147,2.631,2.416c0.574,1.266,1.281,2.538,1.861,3.917c0.574,1.385,1.034,3.341,1.034,3.341l-5.41,7.254
			c0,0-4.375-2.872-5.41-3.909c-1.038-1.042-3.568-4.033-3.568-4.033S145.395,145.406,146.197,143.448z"/>
		<path fill="#C8C9CA" d="M145.622,133.088c0,0,2.994,0.574,5.875,0.691c2.874,0.117,5.179-0.344,5.179-0.344s0,0.809-0.231,2.074
			c-0.23,1.266-0.343,2.07-0.692,2.763c-0.346,0.689-1.264,0.343-1.264,0.343s-1.957-0.23-3.342-0.23
			c-1.382,0-2.188,0.23-3.338,0.461s-1.728-0.69-1.842-1.727C145.853,136.08,145.622,133.088,145.622,133.088z"/>
		<g>
			<circle cx="144.241" cy="98.607" r="2.071"/>
			<circle cx="163.151" cy="98.607" r="2.071"/>
			<path d="M157.285,188.77c1.142,0,2.069,0.924,2.069,2.071c0,1.14-0.928,2.067-2.069,2.067c-1.145,0-2.072-0.928-2.072-2.067
				C155.213,189.693,156.141,188.77,157.285,188.77z"/>
			<path d="M142.283,182.133c-2.286,0-4.145,1.863-4.145,4.144c0,2.288,1.861,4.145,4.145,4.145c2.046,0,3.742-1.498,4.076-3.454
				h2.6v-1.38h-2.6C146.025,183.633,144.335,182.133,142.283,182.133z M142.283,189.04c-1.523,0-2.763-1.24-2.763-2.764
				c0-1.522,1.239-2.761,2.763-2.761c1.52,0,2.762,1.238,2.762,2.761C145.048,187.806,143.807,189.04,142.283,189.04z"/>
			<path d="M139.75,201.358c-2.286,0-4.142,1.864-4.142,4.144c0,2.294,1.859,4.145,4.142,4.145c2.049,0,3.744-1.495,4.076-3.457h2.6
				v-1.384h-2.6C143.494,202.859,141.799,201.358,139.75,201.358z M139.75,208.268c-1.521,0-2.762-1.242-2.762-2.766
				c0-1.516,1.241-2.761,2.762-2.761c1.525,0,2.763,1.245,2.763,2.761C142.513,207.025,141.275,208.268,139.75,208.268z"/>
			<path d="M138.254,221.504c-2.284,0-4.144,1.861-4.144,4.145c0,2.285,1.859,4.141,4.144,4.141c2.051,0,3.744-1.497,4.076-3.451
				h2.601v-1.383h-2.601C141.995,223.005,140.305,221.504,138.254,221.504z M138.254,228.415c-1.525,0-2.763-1.245-2.763-2.761
				c0-1.523,1.24-2.767,2.763-2.767c1.521,0,2.761,1.243,2.761,2.767C141.015,227.17,139.779,228.415,138.254,228.415z"/>
			<path fill="#E50038" d="M154.167,108.664c0.024,0.312,0.068,0.62,0.122,0.926c0.226,1.328,0.311,2.178-0.764,2.892l0.77,1.149
				c1.874-1.25,1.577-2.999,1.357-4.273c-0.058-0.32-0.094-0.613-0.112-0.881c0.377-0.27,1.098-0.67,1.296-0.716l-0.09-1.381
				c-0.483,0.032-1.473,0.587-2.049,1.005c-0.104-0.035-0.188-0.064-0.305-0.105c-0.938-0.322-2.105-0.724-2.844-0.784l-0.11,1.374
				c0.567,0.048,1.731,0.448,2.505,0.715C154.029,108.619,154.089,108.637,154.167,108.664z"/>
			<path d="M235.075,190.31c0.058-3.815-1.921-8.128-2.188-11.745c-0.049-0.657,0.516-0.969,0.577-1.61
				c0.138-1.345,0.073-2.201-0.046-3.554c-0.959-10.868-7.676-20.067-14.261-26.528c-7.215-7.077-16.215-12.286-24.531-16.247
				c0.475-3.432-8.525-5.604-8.623-7.959c-0.009-0.312,2.433-2.455,3.646-3.977c3.483-4.354,6.207-9.753,6.633-16.246
				c0.826-12.622-5.973-19.545-12.602-26.855c2.453-9.345,4.296-22.788,1.987-35.479c-1.02-5.616-2.61-10.295-4.642-14.923
				c-0.781-1.784-1.721-3.856-3.109-6.017c-1.996-3.094-4.43-5.859-5.164-5.826c-0.898,0.045-8.115,4.714-12.811,12.215
				c-3.761,6.011-5.485,14.209-6.916,19.756c-2.762-9.133-7.104-18.438-12.114-25.103c-1.644-2.19-2.887-3.72-5.97-5.971
				c-14.77,9.187-19.236,33.334-16.576,56.036c0.25,2.131,0.994,6.633,0.994,6.633s-1.623,2.354-2.982,4.644
				c-2.928,4.915-5.847,10.124-6.302,16.577c-0.847,12.051,4.823,18.141,9.615,24.535c-2.038,0.502-3.438,1.645-5.638,1.989
				c-1.096,0.454-1.042,2.056-2.321,2.321c-16.751,8.018-37.545,19.586-40.449,41.116c-0.322,2.38-0.357,4.625,0.332,6.298
				c-2.257,6.072-4.02,13.878-1.327,19.897c2.869,6.411,10.111,7.99,17.576,9.61c-1.61,12.352,0.076,24.152,3.646,33.162
				c0.961,2.429,2.611,4.737,2.982,6.96c0.273,1.646-0.114,3.515,0,4.978c0.699,9.124,5.064,15.364,9.612,20.557
				c-2.522,6.354,0.579,13.212,5.64,15.248c4.236,1.701,11.974,0.666,19.895,0.666c9.9,0,17.567,1.123,21.884-1.992
				c1.009-0.722,2.016-2.683,2.65-2.652c-0.015,0,1.966,2.045,2.321,2.32c4.539,3.483,11.861,2.32,22.217,2.32
				c7.08,0,13.749,0.607,17.574,0c6.478-1.037,10.684-7.85,8.288-15.25c4.952-5.545,8.45-12.105,7.626-20.891
				c-0.214-2.307-1.656-6.963-1.656-6.963s1.518-4.641,2.17-6.982c2.859-10.299,2.456-18.951,2.42-28.494
				C226.5,206.335,234.916,200.971,235.075,190.31z M190.647,130.625c-0.729,5.882-2.064,23.312-10.943,15.915
				c-3.163,16.069-17.997,20.469-34.483,23.213c11.692-12.066,20.805-26.722,29.84-41.448c2.417-1.12,4.595-2.484,6.633-3.979
				C184.86,126.241,187.742,128.443,190.647,130.625z M155.83,183.679c-5.358-2.267-10.82-4.43-15.584-7.298
				c0.132-1.745,0.815-2.943,1.326-4.31c7.776-0.512,14.401-2.171,20.224-4.644c0.534-0.092,0.57,0.317,0.995,0.329
				C162.898,175.488,159.494,179.714,155.83,183.679z M157.285,186.476c2.411,0,4.368,1.946,4.368,4.365
				c0,2.411-1.957,4.365-4.368,4.365c-2.414,0-4.369-1.954-4.369-4.365C152.916,188.422,154.871,186.476,157.285,186.476z
				 M146.197,143.448c0.809-1.956,1.15-2.878,2.072-2.992c0.923-0.117,3.875-0.147,5.299-0.117c1.508,0.034,2.051,1.147,2.631,2.416
				c0.574,1.266,1.281,2.538,1.861,3.917c0.574,1.385,1.034,3.341,1.034,3.341l-5.41,7.254c0,0-4.375-2.872-5.41-3.909
				c-1.038-1.042-3.568-4.033-3.568-4.033S145.395,145.406,146.197,143.448z M142.9,146.54c-4.184-3.773-5.973-10.611-8.1-16.442
				c2.761,0.691,5.935,2.031,8.763,2.521c0.36,2.73,0.301,5.886,1.657,7.628C144.485,142.379,143.835,144.604,142.9,146.54z
				 M145.622,133.088c0,0,2.994,0.574,5.875,0.691c2.874,0.117,5.179-0.344,5.179-0.344s0,0.809-0.231,2.074
				c-0.23,1.266-0.343,2.07-0.692,2.763c-0.346,0.689-1.264,0.343-1.264,0.343s-1.957-0.23-3.342-0.23
				c-1.382,0-2.188,0.23-3.338,0.461s-1.728-0.69-1.842-1.727C145.853,136.08,145.622,133.088,145.622,133.088z M156.824,140.241
				c0.936-2.051,1.533-4.438,1.99-6.964c4.883-1.111,7.666-0.961,10.871-2.834c0.383-0.055,1.66-0.404,1.73-0.149
				c-3.352,6.046-6.921,11.864-10.941,17.241C159.189,145.173,158.271,142.438,156.824,140.241z M123.006,78.238
				c-3.771-22.122-1.982-49.144,11.605-59.68c5.069,4.379,8.738,10.799,11.605,17.574c3.506,8.283,5.72,17.8,6.137,28.562
				c1.014-0.066,1.932,0.136,1.932,0.136s0.156-4.121,0.217-4.823c1.588-18.023,5.788-35.336,17.83-42.604
				c11.824,11.314,14.082,40.27,7.71,59.277c1.342,1.646,3.308,1.114,9.443,11.6c-5.631-0.944-11.618,0.911-18.257,5.651
				c-1.355-3.158-3.847-5.036-6.824-5.036c-1.934,0-3.786,0.805-5.215,2.267c-1.574,1.611-2.455,3.89-2.546,6.464
				c-1.65,0.042-3.271,0.042-4.899-0.006c-0.844-5.983-4.398-8.682-7.659-8.682c-3.072,0-5.95,2.201-7.872,5.971
				c-6.034-4.947-12.758-6.926-20.019-5.869C119.082,83.869,120.84,81.54,123.006,78.238z M169.798,104.456
				c-1.123,1.576-2.884,2.478-4.831,2.478c-3.25,0-6.814-2.707-6.949-8.652c-0.059-2.483,0.711-4.667,2.164-6.158
				c1.166-1.193,2.668-1.85,4.227-1.85c2.616,0,4.804,1.844,5.854,4.932C171.541,98.965,171.375,102.247,169.798,104.456z
				 M147.83,106.165c-1.801,1.996-4.121,2.794-6.349,2.156c-1.671-0.473-2.963-1.527-3.835-3.122
				c-1.312-2.396-1.517-5.771-0.58-8.943c1.65-3.724,4.275-5.943,7.022-5.943c3.319,0,5.878,3.256,6.373,8.105
				C150.73,101.055,149.697,104.094,147.83,106.165z M115.354,90.577c7.389-1.372,14.219,0.527,20.307,5.657
				c-0.922,3.463-0.651,7.031,0.774,9.628c1.045,1.905,2.659,3.214,4.667,3.789c0.639,0.179,1.288,0.273,1.926,0.273
				c2.105,0,4.173-1.007,5.826-2.835c1.985-2.2,3.092-5.24,3.015-8.094c0.817,0.021,1.636,0.04,2.457,0.04
				c0.772,0,1.562-0.019,2.351-0.04c0.42,6.386,4.522,9.316,8.288,9.316c2.398,0,4.565-1.112,5.954-3.052
				c1.775-2.48,2.044-6.016,0.803-10c6.623-4.804,13.309-6.466,18.758-5.399c0,0-0.043,0.068,0.272,0.63
				c5.399,9.667,1.155,20.947-4.415,27.534c-7.076,8.367-21.138,13.925-33.823,13.925c-9.35,0-19.806-3.851-26.854-8.95
				C116.016,116.02,110.156,103.178,115.354,90.577z M116.784,127.641c2.478-1.276,5.157-1.945,7.548-3.314
				c2.693,1.617,5.342,3.281,8.289,4.642c3.23,13.126,9.687,23.026,19.562,29.513c-2.551,4.523-6.1,8.047-10.28,10.938
				c-7.419-1.843-15.358-8.408-10.94-17.9c-8.311,3.438-9.145-3.672-11.302-10.537c-1.388-4.404-2.594-8.521-3.242-12.721
				C116.38,127.68,116.794,127.842,116.784,127.641z M139.915,170.744c-0.596,1.284-0.864,2.898-1.322,4.312
				c-2.814-0.728-3.849-3.227-3.981-6.635C136.882,168.698,137.852,170.267,139.915,170.744z M72.607,189.643
				c-0.844-5.777,1.135-11.172,2.985-15.912c-0.013-0.569,0.249-0.855,0.663-0.992c8.555,0.615,15.037,3.309,20.226,7.299
				c-2.769,6.178-4.884,13.017-6.634,20.221C81.314,199.576,73.77,197.579,72.607,189.643z M90.511,213.851
				c-0.02-13.021,4-24.866,8.623-35.146c3.968-8.829,9.06-16.203,14.919-23.874c0.65-0.845,2.15-2.362,2.15-2.362l-1.5-1.183
				c0,0-1.443,1.688-2.106,2.497c-5.593,6.795-10.917,15.565-14.791,24.258c-6.53-3.75-13.8-6.76-23.212-7.623
				c3.192-23.442,21.492-31.781,39.127-40.785c0.11,0,0.84-0.57,0.992,0c1.778,8.411,5.09,20.184,7.627,22.883
				c1.374,1.465,2.879,1.98,5.636,1.655c-0.332,1.875-0.521,3.968,0,5.969c0.47,1.807,3.313,5.635,3.313,5.635
				s0.168,5.427,1.658,7.96c1.167,1.98,3.306,3.216,4.309,4.638c-5.262,18.601-10.905,47.685-2.981,67.647
				c-13.665-0.377-25.476-2.604-37.137-4.977C93.338,233.347,90.529,224.382,90.511,213.851z M125.706,270.202
				c-11.169-1.034-18.19-2.874-18.19-2.874s-5.872-3.568-7.828-10.476c-1.957-6.905-1.498-13.47-1.498-13.47
				s21.644,4.023,36.729,4.606c15.08,0.575,15.08,0.575,15.08,0.575s-0.806,5.297,0.23,13.122c0.678,5.124,2.648,10.02,2.648,10.02
				S136.873,271.237,125.706,270.202z M208.828,254.318c-0.69,8.983-7.141,13.472-7.141,13.472s-11.746,2.185-25.674,2.998
				c-13.932,0.801-21.298,0.918-21.298,0.918s-1.97-4.896-2.648-10.02c-1.034-7.825-0.229-13.122-0.229-13.122
				s20.26-0.115,34.652-1.955c14.392-1.85,20.608-3.457,20.608-3.457S209.212,249.274,208.828,254.318z M207.555,241.37
				c-21.084,4.353-46.448,6.368-71.287,4.97c-7.941-20.033-3.094-47.349,2.986-67.309c4.193,2.202,8.937,4.564,14.816,6.943
				c-1.877,1.178-3.139,3.256-3.139,5.643c0,3.692,2.992,6.681,6.684,6.681c3.689,0,6.684-2.988,6.684-6.681
				c0-3.339-2.457-6.083-5.658-6.58l0.171-0.039c3.421-5.164,7.849-11.084,6.635-18.896c7.135-3.692,13.265-8.396,15.579-16.91
				c9.527,3.124,9.53-8.741,11.276-15.585c0.201,0.052,0.468-0.067,0.663,0c8.585,2.97,17.188,9.16,23.873,15.585
				c6.893,6.622,12.264,15.825,13.263,26.193c-8.447-0.577-16.272,0.441-23.001,4.941c-1.66-3.181-5.456-10.407-5.456-10.407
				c-5.029-8.323-13.522-15.991-13.522-15.991l-1.27,1.268c0,0,5.968,5.778,12.061,13.966c6.091,8.187,13.527,27.91,13.283,43.692
				C212.04,222.727,210.328,232.467,207.555,241.37z M213.521,203.234c-1.344-7.492-2.836-14.836-5.638-20.883
				c4.237-3.945,12.171-5.952,20.226-4.976c1.305,0.769,1.514,2.976,1.991,4.64c1.239,4.314,2.31,11.895-0.661,15.921
				C226.307,202.18,220.152,202.678,213.521,203.234z"/>
			<path d="M192.559,165.986l-0.788,0.264c-0.03,0.012-1.706,0.57-4.261,1.086l0.007-2.924h0.325l0.008-4.537h-0.535v-1.053
				l-2.561-0.006l-0.005,1.055l-0.53-0.004l-0.007,4.539h0.326l-0.004,3.423c-0.71,0.098-1.452,0.176-2.218,0.239l-0.263-2.265
				l0.323-0.038l-0.519-4.51l-0.531,0.062l-0.122-1.045l-2.55,0.293l0.121,1.047l-0.531,0.061l0.522,4.512l0.33-0.04l0.231,2.034
				c-5.229-0.009-10.999-0.906-11.055-0.918l-0.717-0.111l-0.081,0.722c-0.037,0.344-0.953,8.54-0.863,11.241
				c0.133,4.199,3.252,12.146,14.073,12.146c12.095,0,12.526-10.198,12.692-14.037c0.174-4.076-0.658-10.146-0.695-10.402
				L192.559,165.986z M187.098,164.412l-0.002,3.003c-0.186,0.037-0.373,0.068-0.568,0.103l-0.017-3.105H187.098z M184.945,164.412
				h0.594l0.02,3.268c-0.199,0.037-0.406,0.065-0.613,0.095V164.412z M181.637,165.856l0.244,2.09l-0.565,0.067l-0.263-2.092
				L181.637,165.856z M180.086,166.031l0.262,2.087l-0.424,0.053c-0.064,0.003-0.126,0.006-0.184,0.006l-0.24-2.075L180.086,166.031
				z M191.99,177.158c-0.181,4.128-0.547,12.717-11.313,12.717c-12.203,0-12.68-10.369-12.695-10.815
				c-0.065-2.148,0.561-8.239,0.785-10.325c1.9,0.267,7.214,0.938,11.759,0.813l0.22,1.768l0.967-0.114l-0.208-1.689
				c0.052-0.006,0.11-0.006,0.165-0.013c1.388-0.081,2.696-0.234,3.895-0.416l0.016,2.378h0.973l-0.016-2.532
				c2.194-0.378,3.929-0.836,4.874-1.112C191.631,169.617,192.122,174.06,191.99,177.158z"/>
			<polygon fill="#E50012" points="182.018,172.91 178.304,172.91 178.304,177.527 173.685,177.527 173.685,181.24 178.304,181.24 
				178.304,185.856 182.018,185.856 182.018,181.24 186.638,181.24 186.638,177.527 182.018,177.527 			"/>
		</g>
		<path fill="#F19A96" d="M146.197,143.448c0.809-1.956,1.15-2.878,2.072-2.992c0.923-0.117,3.875-0.147,5.299-0.117
			c1.508,0.034,2.051,1.147,2.631,2.416c0.574,1.266,1.281,2.538,1.861,3.917c0.574,1.385,1.034,3.341,1.034,3.341l-5.41,7.254
			c0,0-4.375-2.872-5.41-3.909c-1.038-1.042-3.568-4.033-3.568-4.033S145.395,145.406,146.197,143.448z"/>
		<path fill="#F19A96" d="M145.622,133.088c0,0,2.994,0.574,5.875,0.691c2.874,0.117,5.179-0.344,5.179-0.344s0,0.809-0.231,2.074
			c-0.23,1.266-0.343,2.07-0.692,2.763c-0.346,0.689-1.264,0.343-1.264,0.343s-1.957-0.23-3.342-0.23
			c-1.382,0-2.188,0.23-3.338,0.461s-1.728-0.69-1.842-1.727C145.853,136.08,145.622,133.088,145.622,133.088z"/>
		<circle fill="#FFFFFF" cx="147.783" cy="148.592" r="1.051"/>
		<circle fill="#FFFFFF" cx="148.495" cy="144.313" r="1.051"/>
		<path fill="#FFFFFF" d="M152.059,145.096c0.582,0,1.053,0.473,1.053,1.051c0,0.583-0.471,1.053-1.053,1.053
			c-0.578,0-1.05-0.47-1.05-1.053C151.009,145.568,151.48,145.096,152.059,145.096z"/>
		<circle fill="#FFFFFF" cx="150.938" cy="150.831" r="1.052"/>
		<circle fill="#FFFFFF" cx="153.992" cy="152.965" r="1.051"/>
		<circle fill="#FFFFFF" cx="156.129" cy="148.589" r="1.052"/>
		<circle fill="#FFFFFF" cx="153.584" cy="142.89" r="1.051"/>
		<circle fill="#FFFFFF" cx="147.478" cy="135.052" r="1.052"/>
		<circle fill="#FFFFFF" cx="150.634" cy="136.986" r="1.052"/>
		<circle fill="#FFFFFF" cx="154.606" cy="135.564" r="1.051"/>
		<path fill="#472713" d="M107.063,270.476c0,0,9.511,2.304,21.524,2.904c10.945,0.547,24.257,0.768,24.257,0.768l-0.855,4.359
			c0,0-0.597,4.267-5.634,4.526c-5.039,0.252-30.746,0.512-30.746,0.512s-7.348-0.086-8.799-5.383
			C105.358,272.865,107.063,270.476,107.063,270.476z"/>
		<path fill="#472713" d="M202.024,270.73c0,0,0.458,1.881,0.458,3.479c0,9.177-8.322,8.947-8.322,8.947l-26.955-0.111
			c0,0-5.015-0.118-7.008-0.913c-1.994-0.794-3.081-1.997-3.537-2.965c-0.451-0.968-1.248-5.014-1.248-5.014
			s8.775,0.463,22.908-0.626C192.448,272.439,202.024,270.73,202.024,270.73z"/>
	</g>
</g>
<g>
</g>
<g>
</g>
<g>
</g>
<g>
</g>
<g>
</g>
</svg>
